<?xml version="1.0" encoding="utf-8"?>
<!-- Generator: Adobe Illustrator 21.1.0, SVG Export Plug-In . SVG Version: 6.00 Build 0)  -->
<svg version="1.1" id="Layer_1" xmlns="http://www.w3.org/2000/svg" xmlns:xlink="http://www.w3.org/1999/xlink" x="0px" y="0px"
	 viewBox="0 0 1644 543.8" style="enable-background:new 0 0 1644 543.8;" xml:space="preserve">
<style type="text/css">
	.st0{fill:#212121;}
	.st1{fill:#2979FF;}
	.st2{fill:#004ECB;}
	.st3{fill:#75A7FF;}
	.st4{fill:#10B6A0;}
	.st5{fill:none;}
	.st6{fill:#607D8B;}
	.st7{font-family:'Roboto-Regular';}
	.st8{font-size:25px;}
	.st9{fill:#D32F2F;}
</style>
<rect id="XMLID_6_" class="st0" width="1644" height="543.8"/>
<g id="XMLID_13_">
	
		<image style="overflow:visible;opacity:0.84;enable-background:new    ;" width="147" height="147" xlink:href="59F7629DBCE0EA3A.png"  transform="matrix(0.9932 0 0 0.9932 1089.778 127.578)">
	</image>
	<g>
		<g>
			<path id="XMLID_55_" class="st1" d="M1213.6,197.5l-53.1-53.1c-2.1-2.1-5.1-3.4-8.3-3.4h-41.3c-6.5,0-11.8,5.3-11.8,11.8v41.3
				c0,3.2,1.3,6.2,3.5,8.4l53.1,53.1c2.1,2.1,5.1,3.4,8.3,3.4s6.2-1.3,8.3-3.5l41.3-41.3c2.2-2.1,3.5-5.1,3.5-8.3
				C1217.1,202.6,1215.7,199.6,1213.6,197.5z"/>
			<path id="XMLID_52_" class="st2" d="M1119.8,170.5c-4.9,0-8.8-4-8.8-8.8c0-4.9,4-8.8,8.8-8.8c4.9,0,8.8,4,8.8,8.8
				S1124.7,170.5,1119.8,170.5z"/>
			<path id="XMLID_51_" class="st3" d="M1189.2,219.2l-25.2,25.2l-25.2-25.2c-2.7-2.7-4.3-6.4-4.3-10.4c0-8.1,6.6-14.7,14.7-14.7
				c4.1,0,7.8,1.7,10.4,4.4l4.3,4.2l4.3-4.3c2.7-2.7,6.4-4.3,10.4-4.3c8.1,0,14.7,6.6,14.7,14.7
				C1193.5,212.9,1191.8,216.6,1189.2,219.2z"/>
		</g>
	</g>
</g>
<g id="XMLID_20_">
	
		<image style="overflow:visible;opacity:0.84;enable-background:new    ;" width="159" height="145" xlink:href="59F7629DBCE0EA3E.png"  transform="matrix(0.9934 0 0 0.9934 424.7999 127.554)">
	</image>
	<g>
		<g>
			<rect id="XMLID_49_" x="441.2" y="141" class="st4" width="116" height="14.5"/>
			<polygon id="XMLID_48_" class="st4" points="564.5,213.5 564.5,199 557.2,162.8 441.2,162.8 433.9,199 433.9,213.5 441.2,213.5 
				441.2,257 513.7,257 513.7,213.5 542.7,213.5 542.7,257 557.2,257 557.2,213.5 			"/>
			<rect id="XMLID_47_" x="455.7" y="213.5" class="st1" width="43.5" height="29"/>
		</g>
	</g>
</g>
<rect id="XMLID_28_" x="359.6" y="306.4" class="st5" width="274.4" height="58.1"/>
<text transform="matrix(1 0 0 1 375.0527 325.4298)" class="st6 st7 st8">Create a shop and list </text>
<text transform="matrix(1 0 0 1 408.4527 355.4298)" class="st6 st7 st8">items you enjoy</text>
<rect id="XMLID_31_" x="696.1" y="306.4" class="st5" width="281.1" height="58.1"/>
<text transform="matrix(1 0 0 1 698.2658 325.4298)" class="st6 st7 st8">Invite friends &amp; followers </text>
<text transform="matrix(1 0 0 1 739.9658 355.4298)" class="st6 st7 st8">to visit your shop</text>
<rect id="XMLID_33_" x="1026.8" y="306.4" class="st5" width="274.4" height="58.1"/>
<text transform="matrix(1 0 0 1 1041.5527 325.4298)" class="st6 st7 st8">Earn donations to any </text>
<text transform="matrix(1 0 0 1 1055.1526 355.4298)" class="st6 st7 st8">charity you support</text>
<g id="XMLID_54_">
	
		<image style="overflow:visible;opacity:0.84;enable-background:new    ;" width="251" height="149" xlink:href="59F7629DBCE0EA39.png"  transform="matrix(0.9953 0 0 0.9953 705.8671 123.4277)">
	</image>
	<g>
		<path class="st9" d="M789.1,183.6h-27.7v-27.7H743v27.7h-27.7V202H743v27.7h18.4V202h27.7L789.1,183.6L789.1,183.6z M881.3,192.8
			c15.3,0,27.6-12.4,27.6-27.7s-12.3-27.7-27.6-27.7c-3,0-5.8,0.5-8.4,1.3c5.3,7.5,8.3,16.5,8.3,26.4s-3.1,18.8-8.3,26.4
			C875.5,192.4,878.4,192.8,881.3,192.8z M835.2,192.8c15.3,0,27.6-12.4,27.6-27.7s-12.3-27.7-27.6-27.7s-27.7,12.4-27.7,27.7
			S819.9,192.8,835.2,192.8z M896.3,212.8c7.7,6.7,12.7,15.3,12.7,26.2v18.4h27.7V239C936.7,224.8,914.8,216,896.3,212.8z
			 M835.2,211.3c-18.4,0-55.3,9.2-55.3,27.7v18.4h110.7V239C890.6,220.5,853.7,211.3,835.2,211.3z"/>
	</g>
</g>
</svg>
