<svg id="Layer_1" data-name="Layer 1" xmlns="http://www.w3.org/2000/svg" xmlns:xlink="http://www.w3.org/1999/xlink" viewBox="0 0 1644 543.8"><defs><style>.cls-1{fill:#fff;}.cls-2{opacity:0.84;}.cls-2,.cls-8{isolation:isolate;}.cls-3{fill:#2979ff;}.cls-4{fill:#004ecb;}.cls-5{fill:#75a7ff;}.cls-6{fill:#10b6a0;}.cls-7{fill:none;}.cls-8{font-size:25px;fill:#607d8b;font-family:Roboto-Regular, Roboto;}.cls-9{letter-spacing:-0.01em;}.cls-10{letter-spacing:-0.01em;}.cls-11{letter-spacing:0.01em;}.cls-12{fill:#d32f2f;}</style></defs><title>homeimage1</title><rect id="_Path_" data-name="&lt;Path&gt;" class="cls-1" width="1644" height="543.8"/><g id="_Group_" data-name="&lt;Group&gt;"><image class="cls-2" width="147" height="147" transform="translate(1089.78 127.58) scale(0.99)" xlink:href="59F7629DBCE0EA3A.png"/><path id="_Path_2" data-name="&lt;Path&gt;" class="cls-3" d="M1213.6,197.5l-53.1-53.1a11.8,11.8,0,0,0-8.3-3.4h-41.3a11.82,11.82,0,0,0-11.8,11.8v41.3a11.88,11.88,0,0,0,3.5,8.4l53.1,53.1a11.8,11.8,0,0,0,8.3,3.4,11.48,11.48,0,0,0,8.3-3.5l41.3-41.3a11.48,11.48,0,0,0,3.5-8.3A12,12,0,0,0,1213.6,197.5Z"/><path id="_Path_3" data-name="&lt;Path&gt;" class="cls-4" d="M1119.8,170.5a8.8,8.8,0,1,1,8.8-8.8A8.81,8.81,0,0,1,1119.8,170.5Z"/><path id="_Path_4" data-name="&lt;Path&gt;" class="cls-5" d="M1189.2,219.2,1164,244.4l-25.2-25.2a14.71,14.71,0,0,1,10.4-25.1,14.41,14.41,0,0,1,10.4,4.4l4.3,4.2,4.3-4.3a14.71,14.71,0,0,1,25.1,10.4A13.79,13.79,0,0,1,1189.2,219.2Z"/></g><g id="_Group_2" data-name="&lt;Group&gt;"><image class="cls-2" width="159" height="145" transform="translate(424.8 127.55) scale(0.99)" xlink:href="59F7629DBCE0EA3E.png"/><rect id="_Path_5" data-name="&lt;Path&gt;" class="cls-6" x="441.2" y="141" width="116" height="14.5"/><polygon id="_Path_6" data-name="&lt;Path&gt;" class="cls-6" points="564.5 213.5 564.5 199 557.2 162.8 441.2 162.8 433.9 199 433.9 213.5 441.2 213.5 441.2 257 513.7 257 513.7 213.5 542.7 213.5 542.7 257 557.2 257 557.2 213.5 564.5 213.5"/><rect id="_Path_7" data-name="&lt;Path&gt;" class="cls-3" x="455.7" y="213.5" width="43.5" height="29"/></g><rect id="_Path_8" data-name="&lt;Path&gt;" class="cls-7" x="359.6" y="306.4" width="274.4" height="58.1"/><text class="cls-8" transform="translate(375.05 325.43)">C<tspan class="cls-9" x="15.83" y="0">r</tspan><tspan x="24.35" y="0">eate a shop and list </tspan></text><text class="cls-8" transform="translate(408.45 355.43)">items <tspan class="cls-10" x="68.95" y="0">y</tspan><tspan x="81.34" y="0">ou enj</tspan><tspan class="cls-10" x="149.73" y="0">o</tspan><tspan x="163.76" y="0">y</tspan></text><rect id="_Path_9" data-name="&lt;Path&gt;" class="cls-7" x="696.1" y="306.4" width="281.1" height="58.1"/><text class="cls-8" transform="translate(698.27 325.43)">Invite friends &amp; followers </text><text class="cls-8" transform="translate(739.97 355.43)">to visit <tspan class="cls-10" x="81.73" y="0">y</tspan><tspan x="94.12" y="0">our shop</tspan></text><rect id="_Path_10" data-name="&lt;Path&gt;" class="cls-7" x="1026.8" y="306.4" width="274.4" height="58.1"/><text class="cls-8" transform="translate(1041.55 325.43)">Earn donations to any </text><text class="cls-8" transform="translate(1055.15 355.43)">charity <tspan class="cls-10" x="83.3" y="0">y</tspan><tspan x="95.69" y="0">ou suppo</tspan><tspan class="cls-11" x="200.23" y="0">r</tspan><tspan x="209.19" y="0">t</tspan></text><g id="_Group_3" data-name="&lt;Group&gt;"><image class="cls-2" width="251" height="149" transform="translate(705.87 123.43)" xlink:href="59F7629DBCE0EA39.png"/><path class="cls-12" d="M789.1,183.6H761.4V155.9H743v27.7H715.3V202H743v27.7h18.4V202h27.7V183.6Zm92.2,9.2a27.7,27.7,0,0,0,0-55.4,28.42,28.42,0,0,0-8.4,1.3,45.27,45.27,0,0,1,8.3,26.4,46.23,46.23,0,0,1-8.3,26.4A25.92,25.92,0,0,0,881.3,192.8Zm-46.1,0a27.7,27.7,0,1,0-27.7-27.7A27.61,27.61,0,0,0,835.2,192.8Zm61.1,20C904,219.5,909,228.1,909,239v18.4h27.7V239C936.7,224.8,914.8,216,896.3,212.8Zm-61.1-1.5c-18.4,0-55.3,9.2-55.3,27.7v18.4H890.6V239C890.6,220.5,853.7,211.3,835.2,211.3Z"/></g></svg>