<?xml version="1.0" encoding="utf-8"?>
<!-- Generator: Adobe Illustrator 21.1.0, SVG Export Plug-In . SVG Version: 6.00 Build 0)  -->
<svg version="1.1" id="Layer_1" xmlns="http://www.w3.org/2000/svg" xmlns:xlink="http://www.w3.org/1999/xlink" x="0px" y="0px"
	 viewBox="0 0 188.8 151.8" style="enable-background:new 0 0 188.8 151.8;" xml:space="preserve">
<style type="text/css">
	.st0{fill:#FFFFFF;stroke:#FFFFFF;stroke-width:1.2598;stroke-miterlimit:10;}
	.st1{fill:#212121;}
	.st2{fill:#2979FF;}
</style>
<rect id="XMLID_8_" x="0.6" y="0.6" class="st0" width="186.9" height="150.1"/>
<path id="XMLID_6_" class="st1" d="M84.3,78.3c-8.4-16.8-28.9-23.5-45.6-15.1S15.1,92,23.5,108.8c1.4,2.8,4.8,3.9,7.6,2.5
	c1.3-0.7,2.2-1.8,2.7-3s1.4-2.3,2.7-3c2.8-1.4,6.2-0.3,7.6,2.5l3,6c4.7,9.3,16,13.1,25.4,8.4C87.5,114.7,92.7,95,84.3,78.3z"/>
<path id="XMLID_5_" class="st2" d="M44.6,75c-1.4-2.8-0.3-6.2,2.5-7.6s6.2-0.3,7.6,2.5c1.4,2.8,0.3,6.2-2.5,7.6S46,77.8,44.6,75z"/>
<path id="XMLID_4_" class="st2" d="M63.2,78.3c-1.4-2.8-0.3-6.2,2.5-7.6c2.8-1.4,6.2-0.3,7.6,2.5s0.3,6.2-2.5,7.6
	C68,82.2,64.6,81.1,63.2,78.3z"/>
<path id="XMLID_3_" class="st2" d="M71.6,95.2c-1.4-2.8-0.3-6.2,2.5-7.6s6.2-0.3,7.6,2.5s0.3,6.2-2.5,7.6C76.4,99.1,73,98,71.6,95.2
	z"/>
<path id="XMLID_2_" class="st2" d="M63.2,112.1c-1.4-2.8-0.3-6.2,2.5-7.6c2.8-1.4,6.2-0.3,7.6,2.5s0.3,6.2-2.5,7.6
	C68,116,64.6,114.9,63.2,112.1z"/>
<path id="XMLID_22_" class="st2" d="M127,63.9c-4.9,0-8.8,3.9-8.8,8.8c0,3.9-3.4,5.9-5.9,5.9c2.7,3.6,7.3,5.9,11.8,5.9
	c6.5,0,11.8-5.3,11.8-11.8C135.9,67.8,131.9,63.9,127,63.9z"/>
<path id="XMLID_7_" class="st1" d="M167.4,36.3l-3.9-3.9c-1.1-1.1-3-1.1-4.1,0L133,58.8l8.1,8.1l26.4-26.4
	C168.5,39.3,168.5,37.5,167.4,36.3z"/>
</svg>
