<?xml version="1.0" encoding="utf-8"?>
<!-- Generator: Adobe Illustrator 21.1.0, SVG Export Plug-In . SVG Version: 6.00 Build 0)  -->
<svg version="1.1" id="Layer_1" xmlns="http://www.w3.org/2000/svg" xmlns:xlink="http://www.w3.org/1999/xlink" x="0px" y="0px"
	 viewBox="0 0 188.2 153.1" style="enable-background:new 0 0 188.2 153.1;" xml:space="preserve">
<style type="text/css">
	.st0{fill:#FFFFFF;}
	.st1{fill:#607D8B;}
	.st2{fill:#212121;}
	.st3{fill:#2979FF;}
	.st4{fill:#0D47A1;}
	.st5{fill:#10B6A0;}
	.st6{fill:#CC3333;stroke:#CC3333;stroke-width:3;stroke-miterlimit:10;}
	.st7{fill:#2979FF;stroke:#0D47A1;stroke-width:2;stroke-miterlimit:10;}
</style>
<rect id="XMLID_8_" x="0.6" y="0.6" class="st0" width="186.9" height="151.8"/>
<path class="st1" d="M29.3,40.9v2.7h7.1v-2.7H29.3z"/>
<path class="st1" d="M29.3,59.7v2.7h7.4v-2.7H29.3z"/>
<path class="st2" d="M130.2,61.8c0-2-0.2-4-0.5-6.1c-0.2-1.2-1.4-2-2.6-1.8c-1.2,0.2-2,1.4-1.8,2.6c0.2,1,0.3,2,0.4,3H122
	c-1.2-14.5-13.3-25.9-28.1-25.9S66.9,45,65.7,59.5H62c0.1-1,0.2-2,0.4-3c0.2-1.2-0.6-2.4-1.8-2.6c-1.2-0.2-2.4,0.6-2.6,1.8
	c-0.3,2-0.5,4.1-0.5,6.1c0,12.5,6.4,23.6,16.1,30.2l-6.1,10.7c-0.8,1.4-0.3,3.2,1.1,4c0.5,0.3,1,0.4,1.5,0.4c1,0,2-0.5,2.6-1.5
	l6.1-10.7c4.6,2.1,9.7,3.3,15.1,3.3c5,0,9.9-1,14.2-2.9l5.8,10.3c0.5,1,1.6,1.5,2.6,1.5c0.5,0,1-0.1,1.5-0.4c1.4-0.8,1.9-2.6,1.1-4
	l-5.8-10.2C123.5,86.1,130.2,74.7,130.2,61.8z"/>
<path class="st3" d="M93.8,38.1c13.1,0,23.8,10.7,23.8,23.8s-10.7,23.8-23.8,23.8S70.1,74.9,70.1,61.8S80.7,38.1,93.8,38.1z"/>
<path class="st0" d="M93.8,93.8C76.9,93.8,63.1,80.6,62,64h3.7C66.8,78.5,79,90.1,93.8,90.1s27-11.5,28.1-26.1h3.7
	C124.6,80.6,110.7,93.8,93.8,93.8z"/>
<path class="st4" d="M79.8,72.9c0.3,0.4,0.7,0.6,1.2,0.6c0.3,0,0.6-0.1,0.9-0.3l25.5-19.7c0.6-0.5,0.8-1.4,0.3-2.1
	c-0.5-0.6-1.4-0.8-2.1-0.3L80.1,70.8C79.4,71.3,79.3,72.2,79.8,72.9z"/>
<path class="st4" d="M80.1,63c0.3,0,0.6-0.1,0.9-0.3l15.8-12.1c0.7-0.5,0.8-1.4,0.3-2.1c-0.5-0.6-1.4-0.8-2.1-0.3L79.2,60.3
	c-0.7,0.5-0.8,1.4-0.3,2.1C79.2,62.8,79.7,63,80.1,63z"/>
<path class="st4" d="M91,73.5c-0.7,0.5-0.8,1.4-0.3,2.1c0.3,0.4,0.7,0.6,1.2,0.6c0.3,0,0.6-0.1,0.9-0.3l15.8-12.1
	c0.7-0.5,0.8-1.4,0.3-2.1c-0.5-0.7-1.4-0.8-2.1-0.3L91,73.5z"/>
<path class="st5" d="M24,39.6c-1.5,0-2.7,1.2-2.7,2.7v20.1c0,1.5,1.2,2.7,2.7,2.7h4c1.5,0,2.7-1.2,2.7-2.7V42.3
	c0-1.5-1.2-2.7-2.7-2.7H24z"/>
<rect x="24" y="42.3" class="st5" width="4" height="20.1"/>
<path class="st5" d="M21.3,62.3v46.8H24V62.3H21.3z"/>
<path class="st5" d="M24,65.1v44.1h2.7V65.1H24z"/>
<path class="st1" d="M32,45.6v2.7h4.7v-2.7H32z"/>
<path class="st1" d="M32,50.3V53h4.7v-2.7H32z"/>
<path class="st1" d="M32,55v2.7h4.7V55H32z"/>
<path class="st3" d="M33.3,36.9c-0.7,0-1.3,0.6-1.3,1.3c0,0.3,0.1,0.6,0.3,0.8l0.9,1.1c1.4,1.7,2.1,3.8,2.1,5.9v12.2
	c0,3.7,3,6.7,6.7,6.7h5.4c0.7,0,1.3-0.6,1.3-1.3c0-0.3-0.1-0.5-0.2-0.7l-1.3-2.1c-1.2-1.9-1.8-4.1-1.8-6.4V43.6c0-3.7-3-6.7-6.7-6.7
	L33.3,36.9z"/>
<path class="st4" d="M35.9,39.6h2.8c2.2,0,4,1.8,4,4v10.9c0,2.8,0.8,5.5,2.2,7.8v0.1H42c-2.2,0-4-1.8-4-4V46.1
	C38,43.7,37.2,41.5,35.9,39.6L35.9,39.6z"/>
<path class="st6" d="M162.2,53.7c2.1-2.1,4-2.8,4.5-2.8c0,0.5-0.6,2.3-2.8,4.5c-2.2,2.1-4,2.8-4.5,2.8
	C159.3,57.6,160,55.8,162.2,53.7z"/>
<path class="st6" d="M166.6,55.2v16h-7.2V60.1l0,0c1.7,0,4-1.5,5.9-3.4C165.8,56.3,166.2,55.7,166.6,55.2z"/>
<rect x="157.3" y="71.3" class="st7" width="11.4" height="22.2"/>
<polygon class="st7" points="169.9,103 156.1,103 156.1,93.5 170,93.5 170,103 "/>
</svg>
