<?xml version="1.0" encoding="utf-8"?>
<!-- Generator: Adobe Illustrator 21.1.0, SVG Export Plug-In . SVG Version: 6.00 Build 0)  -->
<svg version="1.1" id="Layer_1" xmlns="http://www.w3.org/2000/svg" xmlns:xlink="http://www.w3.org/1999/xlink" x="0px" y="0px"
	 viewBox="0 0 188.2 153.1" style="enable-background:new 0 0 188.2 153.1;" xml:space="preserve">
<style type="text/css">
	.st0{fill:#FFFFFF;}
	.st1{fill:#212121;}
	.st2{fill:#1E88E5;stroke:#1E88E5;stroke-width:3;stroke-miterlimit:10;}
	.st3{fill:#212121;stroke:#212121;stroke-width:2;stroke-miterlimit:10;}
</style>
<rect id="XMLID_8_" x="0.6" y="0.6" class="st0" width="186.9" height="151.8"/>
<path class="st1" d="M111.3,62.8c0-2-0.2-4-0.5-6.1c-0.2-1.2-1.4-2-2.6-1.8c-1.2,0.2-2,1.4-1.8,2.6c0.2,1,0.3,2,0.4,3h-3.7
	C101.9,46,89.8,34.5,75,34.5S48,46,46.8,60.5h-3.7c0.1-1,0.2-2,0.4-3c0.2-1.2-0.6-2.4-1.8-2.6c-1.2-0.2-2.4,0.6-2.6,1.8
	c-0.3,2-0.5,4.1-0.5,6.1c0,12.5,6.4,23.6,16.1,30.2l-6.1,10.7c-0.8,1.4-0.3,3.2,1.1,4c0.5,0.3,1,0.4,1.5,0.4c1,0,2-0.5,2.6-1.5
	l6.1-10.7c4.6,2.1,9.7,3.3,15.1,3.3c5,0,9.9-1,14.2-2.9l5.8,10.3c0.5,1,1.6,1.5,2.6,1.5c0.5,0,1-0.1,1.5-0.4c1.4-0.8,1.9-2.6,1.1-4
	l-5.8-10.2C104.6,87.1,111.3,75.6,111.3,62.8z"/>
<path class="st1" d="M74.9,39C88,39,98.7,49.8,98.7,62.8S88,86.6,74.9,86.6S51.2,75.9,51.2,62.8S61.8,39,74.9,39z"/>
<path class="st0" d="M74.9,94.8c-16.9,0-30.7-13.2-31.8-29.8h3.7c1.1,14.5,13.3,26.1,28.1,26.1s27-11.5,28.1-26.1h3.7
	C105.7,81.6,91.8,94.8,74.9,94.8z"/>
<path class="st1" d="M60.9,73.9c0.3,0.4,0.7,0.6,1.2,0.6c0.3,0,0.6-0.1,0.9-0.3l25.5-19.7c0.6-0.5,0.8-1.4,0.3-2.1
	c-0.5-0.6-1.4-0.8-2.1-0.3L61.2,71.8C60.5,72.2,60.4,73.1,60.9,73.9z"/>
<path class="st1" d="M61.2,64c0.3,0,0.6-0.1,0.9-0.3l15.8-12.1c0.7-0.5,0.8-1.4,0.3-2.1c-0.5-0.6-1.4-0.8-2.1-0.3L60.3,61.2
	c-0.7,0.5-0.8,1.4-0.3,2.1C60.3,63.8,60.8,64,61.2,64z"/>
<path class="st1" d="M72.1,74.4c-0.7,0.5-0.8,1.4-0.3,2.1c0.3,0.4,0.7,0.6,1.2,0.6c0.3,0,0.6-0.1,0.9-0.3l15.8-12.1
	c0.7-0.5,0.8-1.4,0.3-2.1c-0.5-0.7-1.4-0.8-2.1-0.3L72.1,74.4z"/>
<path class="st2" d="M143.3,54.7c2.1-2.1,4-2.8,4.5-2.8c0,0.5-0.6,2.3-2.8,4.5c-2.2,2.1-4,2.8-4.5,2.8
	C140.4,58.5,141.1,56.8,143.3,54.7z"/>
<path class="st2" d="M147.7,56.2v16h-7.2V61l0,0c1.7,0,4-1.5,5.9-3.4C146.9,57.2,147.3,56.7,147.7,56.2z"/>
<rect x="138.4" y="72.2" class="st3" width="11.4" height="22.2"/>
<polygon class="st3" points="151,103.9 137.2,103.9 137.2,94.4 151.1,94.4 151.1,103.9 "/>
</svg>
