<?xml version="1.0" encoding="utf-8"?>
<!-- Generator: Adobe Illustrator 21.1.0, SVG Export Plug-In . SVG Version: 6.00 Build 0)  -->
<svg version="1.1" id="Layer_1" xmlns="http://www.w3.org/2000/svg" xmlns:xlink="http://www.w3.org/1999/xlink" x="0px" y="0px"
	 viewBox="0 0 188.2 151.3" style="enable-background:new 0 0 188.2 151.3;" xml:space="preserve">
<style type="text/css">
	.st0{fill:#FFFFFF;stroke:#FFFFFF;stroke-width:1.2598;stroke-miterlimit:10;}
	.st1{fill:#FFFFFF;stroke:#FFFFFF;stroke-miterlimit:10;}
	.st2{fill:#F68C1E;stroke:#C16028;stroke-width:1.2371;stroke-miterlimit:10;}
	.st3{fill:none;stroke:#C16028;stroke-width:1.2371;stroke-miterlimit:10;}
	.st4{fill:#616162;}
	.st5{fill:#333333;}
</style>
<rect id="XMLID_8_" x="0.6" y="0.6" class="st0" width="186.9" height="150.1"/>
<g id="XMLID_15_">
	<rect id="XMLID_30_" x="21.2" y="17.9" class="st1" width="145.7" height="121.3"/>
	<g id="XMLID_16_">
		<g id="XMLID_24_">
			<circle id="XMLID_29_" class="st2" cx="107.4" cy="74.6" r="26"/>
			<line id="XMLID_28_" class="st3" x1="107.4" y1="48.6" x2="107.4" y2="100.6"/>
			<line id="XMLID_27_" class="st3" x1="133.4" y1="74.6" x2="81.4" y2="74.6"/>
			<path id="XMLID_26_" class="st3" d="M91.1,54.4c0,0,7.8,7.4,7.8,20.2s-7.8,20.2-7.8,20.2"/>
			<path id="XMLID_25_" class="st3" d="M123.9,54.4c0,0-7.8,7.4-7.8,20.2s7.8,20.2,7.8,20.2"/>
		</g>
		<g id="XMLID_17_">
			<path id="XMLID_23_" d="M99.4,70.9v-5.8h-4.5v14.6H68.1V65.1h-4.5v5.8h-4.5v8.7h-4.4v5.8h4.5v8.7h4.5v5.8h4.5V85.5H95v14.6h4.5
				v-5.8h4.5v-8.7h4.5v-5.8H104v-8.9H99.4z"/>
			<rect id="XMLID_22_" x="68.1" y="79.6" class="st4" width="26.8" height="5.8"/>
			<rect id="XMLID_21_" x="54.7" y="79.6" class="st4" width="4.5" height="5.8"/>
			<rect id="XMLID_20_" x="103.8" y="79.6" class="st4" width="4.5" height="5.8"/>
			<rect id="XMLID_19_" x="59.2" y="70.9" class="st5" width="4.5" height="23.3"/>
			<rect id="XMLID_18_" x="99.4" y="70.9" class="st5" width="4.5" height="23.4"/>
		</g>
	</g>
</g>
</svg>
