<?xml version="1.0" encoding="utf-8"?>
<!-- Generator: Adobe Illustrator 19.0.0, SVG Export Plug-In . SVG Version: 6.00 Build 0)  -->
<svg version="1.1" id="Layer_1" xmlns="http://www.w3.org/2000/svg" xmlns:xlink="http://www.w3.org/1999/xlink" x="0px" y="0px"
	 viewBox="0 0 188.8 151.8" style="enable-background:new 0 0 188.8 151.8;" xml:space="preserve">
<style type="text/css">
	.Drop_x0020_Shadow{fill:none;}
	.Outer_x0020_Glow_x0020_5_x0020_pt{fill:none;}
	.Blue_x0020_Neon{fill:none;stroke:#8AACDA;stroke-width:7;stroke-linecap:round;stroke-linejoin:round;}
	.Chrome_x0020_Highlight{fill:url(#SVGID_1_);stroke:#FFFFFF;stroke-width:0.3629;stroke-miterlimit:1;}
	.Jive_GS{fill:#FFDD00;}
	.Alyssa_GS{fill:#A6D0E4;}
	.st0{fill:#FFFFFF;stroke:#FFFFFF;stroke-width:1.2598;stroke-miterlimit:10;}
	.st1{fill:#424243;}
	.st2{fill:url(#XMLID_29_);}
	.st3{fill:url(#XMLID_39_);}
	.st4{fill:url(#XMLID_43_);}
</style>
<linearGradient id="SVGID_1_" gradientUnits="userSpaceOnUse" x1="2.9131" y1="0.6318" x2="2.9131" y2="-0.3682">
	<stop  offset="0" style="stop-color:#656565"/>
	<stop  offset="0.618" style="stop-color:#1B1B1B"/>
	<stop  offset="0.6292" style="stop-color:#545454"/>
	<stop  offset="0.9831" style="stop-color:#3E3E3E"/>
</linearGradient>
<rect id="XMLID_8_" x="0.6" y="0.6" class="st0" width="186.9" height="150.1"/>
<g id="XMLID_28_">
	<path id="XMLID_52_" class="st1" d="M121.2,96c3.7,0,6.8-3.1,6.8-6.8V55.3c0-3.7-3.1-6.8-6.8-6.8H66.9c-3.7,0-6.8,3.1-6.8,6.8v33.9
		c0,3.7,3.1,6.8,6.8,6.8H53.3v6.8h81.4V96H121.2z M66.9,55.3h54.3v33.9H66.9V55.3z"/>
	<path id="XMLID_48_" class="st1" d="M40.7,60.4H25.5c-2.6,0-4.8,2.1-4.8,4.8v32.3c0,2.6,2.1,4.8,4.8,4.8h15.2
		c2.6,0,4.8-2.1,4.8-4.8V65.2C45.5,62.5,43.3,60.4,40.7,60.4z M33.1,100.3c-1.6,0-2.9-1.3-2.9-2.9c0-1.6,1.3-2.9,2.9-2.9
		c1.6,0,2.9,1.3,2.9,2.9C36,99.1,34.7,100.3,33.1,100.3z M41.7,92.7H24.6V66.1h17.1V92.7z"/>
	<path id="XMLID_44_" class="st1" d="M162.9,65.3h-13.8c-2.9,0-5.2,2.3-5.2,5.2v27.7c0,2.9,2.3,5.2,5.2,5.2h13.8
		c2.9,0,5.2-2.3,5.2-5.2V70.5C168.1,67.6,165.8,65.3,162.9,65.3z M159.4,99.9h-6.9v-1.7h6.9V99.9z M165.1,94.7h-18.1V70.5h18.1V94.7
		z"/>
	<linearGradient id="XMLID_29_" gradientUnits="userSpaceOnUse" x1="72.012" y1="94.2812" x2="116.1307" y2="50.1626">
		<stop  offset="0" style="stop-color:#6E6E6E"/>
		<stop  offset="0.59" style="stop-color:#212120"/>
	</linearGradient>
	<rect id="XMLID_3_" x="66.9" y="55.3" class="st2" width="54.3" height="33.9"/>
	<linearGradient id="XMLID_39_" gradientUnits="userSpaceOnUse" x1="22.1652" y1="90.3297" x2="44.0565" y2="68.4384">
		<stop  offset="0" style="stop-color:#6E6E6E"/>
		<stop  offset="0.59" style="stop-color:#212120"/>
	</linearGradient>
	<rect id="XMLID_2_" x="24.6" y="66" class="st3" width="17.1" height="26.7"/>
	<linearGradient id="XMLID_43_" gradientUnits="userSpaceOnUse" x1="145.3942" y1="93.1565" x2="166.5687" y2="71.982">
		<stop  offset="0" style="stop-color:#6E6E6E"/>
		<stop  offset="0.59" style="stop-color:#212120"/>
	</linearGradient>
	<rect id="XMLID_1_" x="146.9" y="70.5" class="st4" width="18.1" height="24.2"/>
</g>
</svg>
